<mxfile host="app.diagrams.net" modified="2023-02-20T03:14:09.182Z" agent="5.0 (Macintosh; Intel Mac OS X 10_15_7) AppleWebKit/537.36 (KHTML, like Gecko) Chrome/109.0.0.0 Safari/537.36" etag="DL0dehJPGFY_7Rag6Pfu" version="20.8.20" type="github">
  <diagram name="第 1 页" id="nwG1dL-r1VlCJuWAogie">
    <mxGraphModel dx="559" dy="743" grid="1" gridSize="10" guides="1" tooltips="1" connect="1" arrows="1" fold="1" page="1" pageScale="1" pageWidth="827" pageHeight="1169" math="0" shadow="0">
      <root>
        <mxCell id="0" />
        <mxCell id="1" parent="0" />
        <mxCell id="Mzg6tb_b1ckmvfPqNj1M-1" value="web application" style="shape=umlLifeline;perimeter=lifelinePerimeter;whiteSpace=wrap;html=1;container=0;dropTarget=0;collapsible=0;recursiveResize=0;outlineConnect=0;portConstraint=eastwest;newEdgeStyle={&quot;edgeStyle&quot;:&quot;elbowEdgeStyle&quot;,&quot;elbow&quot;:&quot;vertical&quot;,&quot;curved&quot;:0,&quot;rounded&quot;:0};" vertex="1" parent="1">
          <mxGeometry x="120" y="160" width="100" height="300" as="geometry" />
        </mxCell>
        <mxCell id="Mzg6tb_b1ckmvfPqNj1M-2" value="配置api" style="shape=umlLifeline;perimeter=lifelinePerimeter;whiteSpace=wrap;html=1;container=0;dropTarget=0;collapsible=0;recursiveResize=0;outlineConnect=0;portConstraint=eastwest;newEdgeStyle={&quot;edgeStyle&quot;:&quot;elbowEdgeStyle&quot;,&quot;elbow&quot;:&quot;vertical&quot;,&quot;curved&quot;:0,&quot;rounded&quot;:0};" vertex="1" parent="1">
          <mxGeometry x="354" y="160" width="100" height="300" as="geometry" />
        </mxCell>
        <mxCell id="Mzg6tb_b1ckmvfPqNj1M-5" value="get supported networks(ex. /network/list)" style="html=1;verticalAlign=bottom;endArrow=block;edgeStyle=elbowEdgeStyle;elbow=vertical;curved=0;rounded=0;" edge="1" parent="1" target="Mzg6tb_b1ckmvfPqNj1M-2">
          <mxGeometry x="0.0029" width="80" relative="1" as="geometry">
            <mxPoint x="170" y="220" as="sourcePoint" />
            <mxPoint x="250" y="220" as="targetPoint" />
            <mxPoint as="offset" />
          </mxGeometry>
        </mxCell>
        <mxCell id="Mzg6tb_b1ckmvfPqNj1M-6" value="get networks options(ex. /network/options)" style="html=1;verticalAlign=bottom;endArrow=block;edgeStyle=elbowEdgeStyle;elbow=vertical;curved=0;rounded=0;" edge="1" parent="1" target="Mzg6tb_b1ckmvfPqNj1M-2">
          <mxGeometry width="80" relative="1" as="geometry">
            <mxPoint x="171" y="248" as="sourcePoint" />
            <mxPoint x="341" y="248" as="targetPoint" />
          </mxGeometry>
        </mxCell>
        <mxCell id="Mzg6tb_b1ckmvfPqNj1M-7" value="get networks options(ex. /network/status)" style="html=1;verticalAlign=bottom;endArrow=block;edgeStyle=elbowEdgeStyle;elbow=horizontal;curved=0;rounded=0;entryX=0.5;entryY=0.383;entryDx=0;entryDy=0;entryPerimeter=0;" edge="1" parent="1">
          <mxGeometry x="0.003" width="80" relative="1" as="geometry">
            <mxPoint x="171" y="279" as="sourcePoint" />
            <mxPoint x="404" y="278.9000000000001" as="targetPoint" />
            <mxPoint as="offset" />
          </mxGeometry>
        </mxCell>
        <mxCell id="Mzg6tb_b1ckmvfPqNj1M-27" style="edgeStyle=elbowEdgeStyle;rounded=0;orthogonalLoop=1;jettySize=auto;html=1;elbow=vertical;curved=0;" edge="1" parent="1">
          <mxGeometry relative="1" as="geometry">
            <mxPoint x="659.5" y="308" as="sourcePoint" />
            <mxPoint x="839.5" y="308" as="targetPoint" />
          </mxGeometry>
        </mxCell>
        <mxCell id="Mzg6tb_b1ckmvfPqNj1M-8" value="节点查询api" style="shape=umlLifeline;perimeter=lifelinePerimeter;whiteSpace=wrap;html=1;container=0;dropTarget=0;collapsible=0;recursiveResize=0;outlineConnect=0;portConstraint=eastwest;newEdgeStyle={&quot;edgeStyle&quot;:&quot;elbowEdgeStyle&quot;,&quot;elbow&quot;:&quot;vertical&quot;,&quot;curved&quot;:0,&quot;rounded&quot;:0};" vertex="1" parent="1">
          <mxGeometry x="610" y="160" width="100" height="300" as="geometry" />
        </mxCell>
        <mxCell id="Mzg6tb_b1ckmvfPqNj1M-9" value="get block(ex. /block)" style="html=1;verticalAlign=bottom;endArrow=block;edgeStyle=elbowEdgeStyle;elbow=horizontal;curved=0;rounded=0;entryX=0.49;entryY=0.49;entryDx=0;entryDy=0;entryPerimeter=0;" edge="1" parent="1" target="Mzg6tb_b1ckmvfPqNj1M-8">
          <mxGeometry width="80" relative="1" as="geometry">
            <mxPoint x="172" y="307" as="sourcePoint" />
            <mxPoint x="342" y="307" as="targetPoint" />
          </mxGeometry>
        </mxCell>
        <mxCell id="Mzg6tb_b1ckmvfPqNj1M-10" value="get transaction(ex. /block/transaction)" style="html=1;verticalAlign=bottom;endArrow=block;edgeStyle=elbowEdgeStyle;elbow=horizontal;curved=0;rounded=0;" edge="1" parent="1">
          <mxGeometry width="80" relative="1" as="geometry">
            <mxPoint x="170" y="340" as="sourcePoint" />
            <mxPoint x="660" y="340" as="targetPoint" />
          </mxGeometry>
        </mxCell>
        <mxCell id="Mzg6tb_b1ckmvfPqNj1M-11" value="get account balance(ex. /account/balance)" style="html=1;verticalAlign=bottom;endArrow=block;edgeStyle=elbowEdgeStyle;elbow=horizontal;curved=0;rounded=0;" edge="1" parent="1">
          <mxGeometry x="0.0021" width="80" relative="1" as="geometry">
            <mxPoint x="170" y="370" as="sourcePoint" />
            <mxPoint x="660" y="370" as="targetPoint" />
            <mxPoint as="offset" />
          </mxGeometry>
        </mxCell>
        <mxCell id="Mzg6tb_b1ckmvfPqNj1M-12" value="get mempool transactions(ex. /mempool)" style="html=1;verticalAlign=bottom;endArrow=block;edgeStyle=elbowEdgeStyle;elbow=vertical;curved=0;rounded=0;" edge="1" parent="1">
          <mxGeometry width="80" relative="1" as="geometry">
            <mxPoint x="170" y="410" as="sourcePoint" />
            <mxPoint x="657" y="410" as="targetPoint" />
          </mxGeometry>
        </mxCell>
        <mxCell id="Mzg6tb_b1ckmvfPqNj1M-13" value="get specific mempool transaction(ex. /mempool/transaction)" style="html=1;verticalAlign=bottom;endArrow=block;edgeStyle=elbowEdgeStyle;elbow=vertical;curved=0;rounded=0;" edge="1" parent="1">
          <mxGeometry width="80" relative="1" as="geometry">
            <mxPoint x="170" y="437" as="sourcePoint" />
            <mxPoint x="657" y="437" as="targetPoint" />
          </mxGeometry>
        </mxCell>
        <mxCell id="Mzg6tb_b1ckmvfPqNj1M-15" value="" style="html=1;verticalAlign=bottom;endArrow=open;dashed=1;endSize=8;edgeStyle=elbowEdgeStyle;elbow=vertical;curved=0;rounded=0;" edge="1" parent="1">
          <mxGeometry relative="1" as="geometry">
            <mxPoint x="400" y="230" as="sourcePoint" />
            <mxPoint x="170" y="230" as="targetPoint" />
          </mxGeometry>
        </mxCell>
        <mxCell id="Mzg6tb_b1ckmvfPqNj1M-17" value="" style="html=1;verticalAlign=bottom;endArrow=open;dashed=1;endSize=8;edgeStyle=elbowEdgeStyle;elbow=vertical;curved=0;rounded=0;" edge="1" parent="1">
          <mxGeometry relative="1" as="geometry">
            <mxPoint x="400" y="255" as="sourcePoint" />
            <mxPoint x="170" y="255" as="targetPoint" />
          </mxGeometry>
        </mxCell>
        <mxCell id="Mzg6tb_b1ckmvfPqNj1M-18" value="" style="html=1;verticalAlign=bottom;endArrow=open;dashed=1;endSize=8;edgeStyle=elbowEdgeStyle;elbow=vertical;curved=0;rounded=0;" edge="1" parent="1">
          <mxGeometry relative="1" as="geometry">
            <mxPoint x="402" y="287" as="sourcePoint" />
            <mxPoint x="172" y="287" as="targetPoint" />
          </mxGeometry>
        </mxCell>
        <mxCell id="Mzg6tb_b1ckmvfPqNj1M-19" value="" style="html=1;verticalAlign=bottom;endArrow=open;dashed=1;endSize=8;edgeStyle=elbowEdgeStyle;elbow=vertical;curved=0;rounded=0;" edge="1" parent="1" source="Mzg6tb_b1ckmvfPqNj1M-8">
          <mxGeometry relative="1" as="geometry">
            <mxPoint x="400" y="320" as="sourcePoint" />
            <mxPoint x="170" y="320" as="targetPoint" />
          </mxGeometry>
        </mxCell>
        <mxCell id="Mzg6tb_b1ckmvfPqNj1M-20" value="" style="html=1;verticalAlign=bottom;endArrow=open;dashed=1;endSize=8;edgeStyle=elbowEdgeStyle;elbow=vertical;curved=0;rounded=0;" edge="1" parent="1">
          <mxGeometry relative="1" as="geometry">
            <mxPoint x="660" y="352" as="sourcePoint" />
            <mxPoint x="170" y="352" as="targetPoint" />
          </mxGeometry>
        </mxCell>
        <mxCell id="Mzg6tb_b1ckmvfPqNj1M-21" value="" style="html=1;verticalAlign=bottom;endArrow=open;dashed=1;endSize=8;edgeStyle=elbowEdgeStyle;elbow=vertical;curved=0;rounded=0;" edge="1" parent="1">
          <mxGeometry relative="1" as="geometry">
            <mxPoint x="660" y="384" as="sourcePoint" />
            <mxPoint x="170" y="384" as="targetPoint" />
          </mxGeometry>
        </mxCell>
        <mxCell id="Mzg6tb_b1ckmvfPqNj1M-22" value="" style="html=1;verticalAlign=bottom;endArrow=open;dashed=1;endSize=8;edgeStyle=elbowEdgeStyle;elbow=vertical;curved=0;rounded=0;" edge="1" parent="1">
          <mxGeometry relative="1" as="geometry">
            <mxPoint x="661" y="418" as="sourcePoint" />
            <mxPoint x="171" y="418" as="targetPoint" />
          </mxGeometry>
        </mxCell>
        <mxCell id="Mzg6tb_b1ckmvfPqNj1M-23" value="" style="html=1;verticalAlign=bottom;endArrow=open;dashed=1;endSize=8;edgeStyle=elbowEdgeStyle;elbow=vertical;curved=0;rounded=0;" edge="1" parent="1">
          <mxGeometry relative="1" as="geometry">
            <mxPoint x="660" y="453" as="sourcePoint" />
            <mxPoint x="170" y="453" as="targetPoint" />
          </mxGeometry>
        </mxCell>
        <mxCell id="Mzg6tb_b1ckmvfPqNj1M-25" value="区块链节点" style="shape=umlLifeline;perimeter=lifelinePerimeter;whiteSpace=wrap;html=1;container=0;dropTarget=0;collapsible=0;recursiveResize=0;outlineConnect=0;portConstraint=eastwest;newEdgeStyle={&quot;edgeStyle&quot;:&quot;elbowEdgeStyle&quot;,&quot;elbow&quot;:&quot;vertical&quot;,&quot;curved&quot;:0,&quot;rounded&quot;:0};" vertex="1" parent="1">
          <mxGeometry x="790" y="160" width="100" height="300" as="geometry" />
        </mxCell>
        <mxCell id="Mzg6tb_b1ckmvfPqNj1M-28" style="edgeStyle=elbowEdgeStyle;rounded=0;orthogonalLoop=1;jettySize=auto;html=1;elbow=vertical;curved=0;" edge="1" parent="1">
          <mxGeometry relative="1" as="geometry">
            <mxPoint x="660" y="340" as="sourcePoint" />
            <mxPoint x="840" y="340" as="targetPoint" />
          </mxGeometry>
        </mxCell>
        <mxCell id="Mzg6tb_b1ckmvfPqNj1M-29" style="edgeStyle=elbowEdgeStyle;rounded=0;orthogonalLoop=1;jettySize=auto;html=1;elbow=vertical;curved=0;" edge="1" parent="1">
          <mxGeometry relative="1" as="geometry">
            <mxPoint x="660" y="370" as="sourcePoint" />
            <mxPoint x="840" y="370" as="targetPoint" />
          </mxGeometry>
        </mxCell>
        <mxCell id="Mzg6tb_b1ckmvfPqNj1M-30" style="edgeStyle=elbowEdgeStyle;rounded=0;orthogonalLoop=1;jettySize=auto;html=1;elbow=vertical;curved=0;" edge="1" parent="1">
          <mxGeometry relative="1" as="geometry">
            <mxPoint x="660" y="410" as="sourcePoint" />
            <mxPoint x="840" y="410" as="targetPoint" />
          </mxGeometry>
        </mxCell>
        <mxCell id="Mzg6tb_b1ckmvfPqNj1M-31" style="edgeStyle=elbowEdgeStyle;rounded=0;orthogonalLoop=1;jettySize=auto;html=1;elbow=vertical;curved=0;" edge="1" parent="1">
          <mxGeometry relative="1" as="geometry">
            <mxPoint x="660" y="437" as="sourcePoint" />
            <mxPoint x="840" y="437" as="targetPoint" />
          </mxGeometry>
        </mxCell>
        <mxCell id="Mzg6tb_b1ckmvfPqNj1M-32" value="" style="html=1;verticalAlign=bottom;endArrow=open;dashed=1;endSize=8;edgeStyle=elbowEdgeStyle;elbow=vertical;curved=0;rounded=0;" edge="1" parent="1">
          <mxGeometry relative="1" as="geometry">
            <mxPoint x="835" y="320" as="sourcePoint" />
            <mxPoint x="660" y="320" as="targetPoint" />
          </mxGeometry>
        </mxCell>
        <mxCell id="Mzg6tb_b1ckmvfPqNj1M-33" value="" style="html=1;verticalAlign=bottom;endArrow=open;dashed=1;endSize=8;edgeStyle=elbowEdgeStyle;elbow=vertical;curved=0;rounded=0;" edge="1" parent="1">
          <mxGeometry relative="1" as="geometry">
            <mxPoint x="835" y="352" as="sourcePoint" />
            <mxPoint x="660" y="352" as="targetPoint" />
          </mxGeometry>
        </mxCell>
        <mxCell id="Mzg6tb_b1ckmvfPqNj1M-34" value="" style="html=1;verticalAlign=bottom;endArrow=open;dashed=1;endSize=8;edgeStyle=elbowEdgeStyle;elbow=vertical;curved=0;rounded=0;" edge="1" parent="1">
          <mxGeometry relative="1" as="geometry">
            <mxPoint x="836" y="383" as="sourcePoint" />
            <mxPoint x="661" y="383" as="targetPoint" />
          </mxGeometry>
        </mxCell>
        <mxCell id="Mzg6tb_b1ckmvfPqNj1M-35" value="" style="html=1;verticalAlign=bottom;endArrow=open;dashed=1;endSize=8;edgeStyle=elbowEdgeStyle;elbow=vertical;curved=0;rounded=0;" edge="1" parent="1">
          <mxGeometry relative="1" as="geometry">
            <mxPoint x="837" y="418" as="sourcePoint" />
            <mxPoint x="662" y="418" as="targetPoint" />
          </mxGeometry>
        </mxCell>
        <mxCell id="Mzg6tb_b1ckmvfPqNj1M-36" value="" style="html=1;verticalAlign=bottom;endArrow=open;dashed=1;endSize=8;edgeStyle=elbowEdgeStyle;elbow=vertical;curved=0;rounded=0;" edge="1" parent="1">
          <mxGeometry relative="1" as="geometry">
            <mxPoint x="836" y="453" as="sourcePoint" />
            <mxPoint x="661" y="453" as="targetPoint" />
          </mxGeometry>
        </mxCell>
      </root>
    </mxGraphModel>
  </diagram>
</mxfile>
